<svg width="48" height="48" viewBox="0 0 48 48" fill="none" xmlns="http://www.w3.org/2000/svg">
<circle cx="24" cy="24" r="24" fill="#2C4258"/>
<path d="M24.548 7.17488C23.352 7.77019 23.8503 8.61355 24.249 8.96082C23.4517 10.3003 21.4982 13.0387 20.063 13.2769C18.6278 13.515 15.3289 12.9792 13.8588 12.6815C13.2608 11.8481 12.5133 11.987 12.2143 12.1606C12.0897 12.2599 11.9602 12.5774 12.4386 13.0536C12.9169 13.5299 13.5847 13.3513 13.8588 13.2024C15.2292 13.6489 18.2092 14.7503 19.166 15.5837C20.1228 16.4171 20.0132 18.3122 19.8388 19.1556C19.3604 18.9837 19.0913 19.1832 19.0165 19.3044C19.0165 19.5525 19.2408 20.0486 20.1378 20.0486C21.0348 20.0486 20.661 19.5525 20.362 19.3044C21.4384 17.7566 23.0032 17.1216 23.651 16.9976C24.3088 16.6999 28.7589 17.5681 30.9017 18.0394C31.1409 18.6347 31.998 18.7835 32.3967 18.7835C34.0711 18.7835 33.6923 18.089 33.2937 17.7417C32.2771 17.2655 31.4748 17.4937 31.2007 17.6673C29.905 17.2704 26.9101 16.179 25.2955 14.9884C23.6809 13.7978 24.6227 10.6724 25.2955 9.25848C26.3719 9.31801 26.7406 8.58875 26.7905 8.21668C26.4167 6.57956 24.7722 7.17488 24.548 7.17488Z" fill="#ECD8BD"/>
<path d="M17.1479 12.9048L16.2509 12.756C16.1313 12.1607 15.4037 11.4165 15.0549 11.1189C12.4237 9.15432 10.5201 9.70498 9.89715 10.2259C8.46195 11.9523 10.6446 13.773 11.9154 14.4675C13.8268 15.4795 15.5025 14.79 16.1014 14.3187L16.8489 14.6163C16.2509 15.0926 15.9836 15.218 15.3539 15.4349C12.7135 16.3442 9.47356 13.4505 8.9254 12.3095C7.84901 9.63057 10.1712 9.01045 11.4669 9.03525C15.0549 9.33291 16.7492 11.739 17.1479 12.9048Z" fill="#ECD8BD"/>
<path d="M21.7075 18.5603L22.0065 18.2626C22.2822 18.3999 23.5106 19.0831 23.8752 19.9741C24.1037 20.5325 24.0321 21.3532 23.053 21.6113C21.0198 22.147 18.7673 21.3384 17.8952 20.8671C16.9982 20.3214 15.4136 18.9919 16.2507 18.0394C17.0879 17.0869 18.7922 17.2456 19.5397 17.4441L19.5397 17.8161C19.0015 17.6971 18.3188 17.7665 18.0447 17.8161C15.9553 18.2402 17.2972 19.9741 17.2972 19.9741C17.2972 19.9741 21.2392 22.4839 22.8287 21.0904C23.8764 20.1718 22.5048 19.0068 21.7075 18.5603Z" fill="#ECD8BD"/>
<path d="M24.9965 12.3095L25.146 11.6397C27.6576 11.8183 29.7306 10.4739 30.4532 9.77938C32.905 7.04094 30.4781 4.6696 28.9582 3.82623C24.9516 2.15935 21.7573 4.07428 20.661 5.24011C18.9268 7.97856 20.9849 10.1018 22.2307 10.8212L21.7075 11.4165C19.6743 10.4045 18.9667 8.51434 18.867 7.69578C18.3886 4.83827 21.3088 3.03248 22.8287 2.48678C30.3635 0.403173 32.6957 4.74401 32.9199 7.17488C32.3219 11.6993 27.3885 12.4831 24.9965 12.3095Z" fill="#ECD8BD"/>
<path d="M28.6592 16.3279L27.8369 15.9558C29.6309 14.7056 32.7704 14.7403 34.1159 14.914C40.3948 16.2534 39.2736 18.4859 39.2736 18.9324C39.2736 19.3788 36.8069 21.9833 31.6491 21.016C27.523 20.2421 26.6409 18.3618 26.7157 17.5185L27.6127 17.7417C27.4782 19.7486 32.1467 20.5478 32.4714 20.5695C33.2761 20.752 36.1955 20.6633 37.4049 19.6021C38.1052 18.9876 38.6295 17.953 36.8069 16.6999C33.541 14.4547 29.9548 15.6085 28.6592 16.3279Z" fill="#ECD8BD"/>
<path d="M21.0532 35.6141L21.2701 35.3867L21.3266 38.3641C21.8952 41.0431 22.8982 42.0736 25.1901 44.5073C27.0235 46.4543 28.3452 46.4117 28.7769 46.147L29.0248 45.8871C28.3054 45.9691 27.3891 45.8237 25.1892 43.6623C23.4294 41.9331 22.5398 40.2659 22.3151 39.6485C21.8728 38.9669 21.7939 36.7535 21.8097 35.7319C21.7263 35.2481 21.4656 34.0929 21.0895 33.342C20.7133 32.5912 20.6913 31.9087 20.7273 31.6612L19.5351 32.7378C19.5 33.3472 20.1472 34.7784 20.4751 35.4178L21.0532 35.6141Z" fill="#ECD8BD"/>
<path d="M26.2588 30.1556C26.6712 31.3196 27.1624 32.1146 27.3564 32.3667C27.1592 32.3999 26.5851 32.4119 25.8663 32.1939C24.9679 31.9214 24.326 31.3147 24.1561 30.4951C23.9862 29.6756 24.7076 29.2661 25.1351 29.3818C25.4771 29.4744 25.9249 30.1008 26.1061 30.4025C25.9715 29.7975 25.4784 29.3905 25.2487 29.2626C24.1971 28.9772 23.9386 29.8846 23.9407 30.3739C24.0699 31.7481 25.2385 32.2594 25.8066 32.3433C26.89 32.7907 27.6561 32.4645 28.6991 32.5855C29.5335 32.6822 29.6318 33.3572 29.5766 33.6825C30.0701 34.0501 29.9382 34.1204 29.8106 34.1096C29.4167 33.655 28.5819 33.5181 28.2138 33.5065C28.0734 33.3587 27.9436 33.4645 27.8962 33.5358C27.8963 33.8654 28.1251 33.7658 28.2394 33.6748C28.9881 33.74 29.4654 34.0305 29.6105 34.1676L29.5519 34.7712C30.0693 35.079 29.9006 35.1214 29.7516 35.1041C29.3843 34.691 28.5623 34.5292 28.1973 34.4999C28.0154 34.3609 27.8953 34.4478 27.8579 34.5087C27.8846 34.8798 28.1131 34.7978 28.224 34.7105C28.9736 34.8094 29.3717 35.047 29.477 35.1534L29.3967 35.7365C29.8371 36.0209 29.7717 36.1458 29.684 36.1727C29.2214 35.6861 28.3916 35.5759 28.0345 35.5816C27.8816 35.4371 27.7732 35.5406 27.7381 35.6104C27.7882 35.9048 28.0019 35.8254 28.1025 35.7488C28.8343 35.8144 29.2504 36.0924 29.367 36.2232L29.2965 36.7743C29.7803 37.0998 29.6678 37.1802 29.5511 37.1797C29.1398 36.7086 28.3014 36.5958 27.9337 36.5983C27.7583 36.3831 27.6427 36.5635 27.6069 36.6807C27.707 36.9401 27.8625 36.8536 27.9277 36.778C28.5711 36.7107 29.087 37.0156 29.2645 37.1766C29.0362 38.9994 29.4505 40.6471 29.7711 41.5473C30.0917 42.4475 30.8223 44.8265 29.314 45.5838C27.8058 46.3411 24.8922 43.258 23.5821 41.4432C22.2721 39.6285 22.1276 38.5653 22.1055 37.3088C22.0877 36.3036 21.925 35.1339 21.8458 34.6746C22.8783 34.3944 23.135 34.4723 24.1461 34.9954C24.955 35.414 25.6073 37.3169 25.8324 38.216C27.2295 38.7292 28.3116 38.2047 28.678 37.8783C28.73 38.57 28.9899 38.99 29.1134 39.1136C28.908 38.7217 28.8538 37.7013 28.8523 37.24C28.2276 38.3463 26.7096 38.2144 26.0287 38.0102C25.8716 37.2783 25.3083 35.6161 24.3114 34.8222C23.3145 34.0282 22.1989 34.2465 21.7658 34.4549C20.7907 32.5448 20.8501 31.489 21.0018 31.1999C22.0884 29.4358 23.8184 28.8826 24.5476 28.8265C24.9462 28.7845 25.8465 28.9916 26.2588 30.1556Z" fill="#ECD8BD"/>
<path d="M23.8757 29.559C22.4823 26.7438 21.5551 19.2181 21.2633 15.8538C21.3019 15.4607 21.4932 14.4655 21.4844 15.3852C21.4523 18.7458 23.0304 28.0636 23.9968 29.3958L23.8757 29.559Z" fill="#ECD8BD"/>
</svg>
