<svg width="190" height="190" viewBox="0 0 190 190" fill="none" xmlns="http://www.w3.org/2000/svg">
<circle cx="95" cy="95" r="95" fill="#ECD8BD"/>
<path d="M97.1691 28.4006C92.4349 30.757 94.4075 34.0953 95.9855 35.4699C92.8295 40.7719 85.097 51.6117 79.4161 52.5542C73.7351 53.4968 60.6767 51.376 54.8577 50.1978C52.4906 46.8987 49.5318 47.4486 48.3483 48.1359C47.8551 48.5286 47.3422 49.7854 49.2359 51.6706C51.1296 53.5557 53.7728 52.8488 54.8577 52.2597C60.2822 54.027 72.0781 58.3865 75.8654 61.6855C79.6528 64.9845 79.2188 72.4859 78.5284 75.8242C76.6347 75.1439 75.5696 75.9335 75.2737 76.4133C75.2737 77.3952 76.1613 79.3589 79.7119 79.3589C83.2625 79.3589 81.7831 77.3952 80.5996 76.4133C84.8603 70.2866 91.0541 67.773 93.6185 67.2821C96.2222 66.1039 113.837 69.5404 122.319 71.4059C123.266 73.7623 126.659 74.3514 128.237 74.3514C134.865 74.3514 133.366 71.6022 131.787 70.2276C127.763 68.3425 124.588 69.2458 123.503 69.9331C118.374 68.3621 106.519 64.042 100.128 59.329C93.7368 54.6161 97.465 42.2447 100.128 36.6482C104.389 36.8838 105.848 33.9971 106.046 32.5243C104.566 26.0441 98.0567 28.4006 97.1691 28.4006Z" fill="#2C4258"/>
<path d="M67.8767 51.0815L64.3261 50.4924C63.8527 48.1359 60.9727 45.1903 59.592 44.0121C49.1768 36.2358 41.6417 38.4155 39.176 40.4774C33.495 47.3112 42.1348 54.518 47.1648 57.2672C54.7309 61.2732 61.3637 58.5436 63.7343 56.6781L66.6932 57.8563C64.3261 59.7415 63.268 60.238 60.7755 61.0964C50.3242 64.6958 37.4993 53.2416 35.3295 48.725C31.0688 38.121 40.2609 35.6663 45.3895 35.7645C59.5919 36.9427 66.2986 46.4667 67.8767 51.0815Z" fill="#2C4258"/>
<path d="M85.9257 73.4677L87.1092 72.2895C88.2006 72.8327 93.0629 75.5373 94.5063 79.0643C95.4108 81.2745 95.1271 84.5233 91.2516 85.5446C83.2035 87.6654 74.2876 84.4645 70.8356 82.599C67.285 80.4389 61.0122 75.1761 64.3261 71.4058C67.64 67.6355 74.3862 68.2639 77.345 69.0493L77.345 70.5221C75.2147 70.0508 72.5123 70.3258 71.4274 70.5221C63.1566 72.201 68.4685 79.0643 68.4685 79.0643C68.4685 79.0643 84.072 88.9989 90.3639 83.4826C94.511 79.8468 89.0817 75.235 85.9257 73.4677Z" fill="#2C4258"/>
<path d="M98.9444 48.725L99.5362 46.074C109.478 46.781 117.684 41.4593 120.544 38.7101C130.249 27.8704 120.643 18.4839 114.626 15.1455C98.7669 8.54747 86.1228 16.1274 81.7832 20.7421C74.9187 31.5818 83.0653 39.9865 87.9967 42.8339L85.9255 45.1903C77.8775 41.1844 75.0765 33.7026 74.6819 30.4625C72.7883 19.1515 84.3475 12.0036 90.3638 9.84352C120.189 1.59592 129.42 18.7784 130.308 28.4006C127.941 46.3097 108.413 49.4123 98.9444 48.725Z" fill="#2C4258"/>
<path d="M113.443 64.631L110.188 63.1582C117.289 58.2097 129.716 58.3472 135.042 59.0345C159.896 64.3365 155.458 73.1732 155.458 74.9405C155.458 76.7079 145.694 87.0174 125.278 83.1881C108.945 80.1247 105.454 72.6823 105.75 69.3439L109.3 70.2276C108.768 78.1717 127.248 81.3351 128.533 81.4208C131.718 82.1432 143.274 81.792 148.061 77.5915C150.833 75.1591 152.909 71.0639 145.694 66.1038C132.767 57.2164 118.571 61.7836 113.443 64.631Z" fill="#2C4258"/>
<path d="M83.336 140.973L84.1946 140.072L84.418 151.858C86.6687 162.462 90.6393 166.541 99.711 176.175C106.968 183.882 112.2 183.713 113.909 182.665L114.89 181.636C112.043 181.961 108.415 181.386 99.7078 172.83C92.7417 165.985 89.2206 159.386 88.3308 156.942C86.5804 154.244 86.2678 145.482 86.3304 141.439C86.0004 139.524 84.9683 134.951 83.4795 131.979C81.9907 129.007 81.9034 126.305 82.0459 125.326L77.3268 129.587C77.1881 131.999 79.7496 137.664 81.0477 140.195L83.336 140.973Z" fill="#2C4258"/>
<path d="M103.942 119.366C105.574 123.973 107.518 127.12 108.286 128.118C107.506 128.25 105.233 128.297 102.388 127.434C98.8317 126.355 96.2909 123.954 95.6183 120.71C94.9456 117.466 97.8015 115.845 99.4935 116.303C100.847 116.669 102.62 119.149 103.337 120.343C102.804 117.948 100.852 116.337 99.9432 115.831C95.7807 114.701 94.7572 118.293 94.7657 120.23C95.2772 125.669 99.9026 127.694 102.151 128.026C106.44 129.796 109.472 128.505 113.601 128.984C116.904 129.367 117.293 132.039 117.074 133.327C119.028 134.781 118.506 135.06 118.001 135.017C116.442 133.218 113.137 132.676 111.68 132.63C111.124 132.045 110.61 132.463 110.423 132.746C110.423 134.051 111.329 133.656 111.781 133.296C114.745 133.554 116.634 134.704 117.209 135.247L116.977 137.636C119.025 138.854 118.357 139.022 117.767 138.954C116.313 137.319 113.06 136.678 111.615 136.562C110.895 136.012 110.419 136.356 110.271 136.597C110.377 138.066 111.281 137.741 111.72 137.396C114.687 137.787 116.263 138.728 116.68 139.149L116.362 141.457C118.106 142.583 117.847 143.077 117.5 143.184C115.668 141.257 112.384 140.821 110.97 140.844C110.365 140.272 109.936 140.681 109.797 140.958C109.996 142.123 110.841 141.809 111.239 141.506C114.136 141.765 115.783 142.866 116.245 143.383L115.966 145.565C117.881 146.854 117.436 147.172 116.973 147.17C115.346 145.305 112.027 144.858 110.571 144.868C109.877 144.016 109.419 144.731 109.278 145.194C109.674 146.221 110.289 145.879 110.548 145.58C113.094 145.313 115.136 146.52 115.839 147.157C114.935 154.373 116.575 160.895 117.844 164.458C119.113 168.021 122.005 177.438 116.035 180.436C110.065 183.434 98.532 171.229 93.3464 164.046C88.1607 156.863 87.5889 152.654 87.5012 147.681C87.4311 143.702 86.7867 139.071 86.4732 137.254C90.5605 136.145 91.5766 136.453 95.5788 138.524C98.7806 140.18 101.363 147.713 102.254 151.272C107.784 153.303 112.067 151.227 113.517 149.935C113.723 152.673 114.752 154.335 115.241 154.825C114.428 153.273 114.213 149.234 114.208 147.408C111.734 151.788 105.726 151.265 103.03 150.457C102.409 147.56 100.179 140.98 96.233 137.838C92.2868 134.695 87.8711 135.559 86.1565 136.384C82.2967 128.823 82.5321 124.644 83.1323 123.5C87.4337 116.517 94.2817 114.327 97.1681 114.105C98.7458 113.939 102.309 114.758 103.942 119.366Z" fill="#2C4258"/>
<path d="M94.5085 117.005C88.9931 105.861 85.3228 76.0715 84.1677 62.7547C84.3205 61.1986 85.0777 57.2592 85.043 60.8998C84.9159 74.202 91.1625 111.085 94.9879 116.358L94.5085 117.005Z" fill="#2C4258"/>
</svg>
