<svg width="24" height="28" viewBox="0 0 24 28" fill="none" xmlns="http://www.w3.org/2000/svg">
<path d="M21.533 8.00257C21.5483 8.24318 21.5483 8.48385 21.5483 8.72445C21.5483 16.0635 16.5991 24.5198 7.55333 24.5198C4.76651 24.5198 2.17768 23.6088 0 22.0276C0.395954 22.0791 0.776628 22.0964 1.18782 22.0964C3.48728 22.0964 5.60407 21.2198 7.29444 19.7245C5.13199 19.6729 3.3198 18.0745 2.69542 15.8744C3.00001 15.9259 3.30456 15.9603 3.62438 15.9603C4.066 15.9603 4.50766 15.8916 4.9188 15.7714C2.665 15.2557 0.974582 13.0213 0.974582 10.3229V10.2542C1.62938 10.6667 2.39087 10.9245 3.19792 10.9588C1.87304 9.96191 1.00505 8.26038 1.00505 6.33536C1.00505 5.30413 1.24866 4.35882 1.67508 3.53381C4.09643 6.90256 7.73604 9.10252 11.8172 9.34318C11.7411 8.93068 11.6954 8.50105 11.6954 8.07135C11.6954 5.01194 13.8883 2.51978 16.6142 2.51978C18.0305 2.51978 19.3097 3.19009 20.2081 4.27289C21.3198 4.03229 22.3858 3.5682 23.3299 2.93228C22.9644 4.22137 22.1878 5.30418 21.1675 5.99164C22.1574 5.87138 23.1168 5.56194 24 5.13229C23.33 6.23225 22.4924 7.2119 21.533 8.00257Z" fill="#ECD8BD"/>
</svg>
