<svg width="24" height="28" viewBox="0 0 24 28" fill="none" xmlns="http://www.w3.org/2000/svg">
<path d="M23.4985 8.02324C23.2225 7.03782 22.4092 6.26173 21.3767 5.99836C19.505 5.51978 12 5.51978 12 5.51978C12 5.51978 4.49503 5.51978 2.62335 5.99836C1.59077 6.26178 0.777524 7.03782 0.501503 8.02324C0 9.80936 0 13.5359 0 13.5359C0 13.5359 0 17.2626 0.501503 19.0487C0.777524 20.0341 1.59077 20.7778 2.62335 21.0412C4.49503 21.5198 12 21.5198 12 21.5198C12 21.5198 19.505 21.5198 21.3767 21.0412C22.4092 20.7778 23.2225 20.0341 23.4985 19.0487C24 17.2626 24 13.5359 24 13.5359C24 13.5359 24 9.80936 23.4985 8.02324ZM9.54543 16.9194V10.1525L15.8182 13.536L9.54543 16.9194Z" fill="#ECD8BD"/>
</svg>
